<?xml version="1.0" encoding="utf-8"?>
<!-- Generator: Adobe Illustrator 16.0.0, SVG Export Plug-In . SVG Version: 6.00 Build 0)  -->
<!DOCTYPE svg PUBLIC "-//W3C//DTD SVG 1.1//EN" "http://www.w3.org/Graphics/SVG/1.1/DTD/svg11.dtd">
<svg version="1.1" id="a93a6f04-9f48-4989-8d4f-bcc04991c500"
	 xmlns="http://www.w3.org/2000/svg" xmlns:xlink="http://www.w3.org/1999/xlink" x="0px" y="0px" width="1061.5px"
	 height="727.347px" viewBox="0 -71.653 1061.5 727.347" enable-background="new 0 -71.653 1061.5 727.347" xml:space="preserve">
<title>nature_fun</title>
<circle fill="#00CD65" cx="432.589" cy="105.755" r="72.324"/>
<polyline fill="#F2F2F2" points="343.865,406.115 258.91,322.409 237.842,301.649 174.96,239.69 97.01,322.903 19.395,405.768 "/>
<polygon fill="#F2F2F2" points="762.24,406.622 187.843,406.622 258.91,329.585 390.211,175.577 399.06,165.198 517.832,25.881 
	600.015,156.043 602.167,159.45 706.721,325.019 "/>
<polyline fill="#F2F2F2" points="1046.687,406.115 904.81,238.712 835.258,156.651 768.034,240.936 706.721,317.841 
	636.592,405.768 "/>
<polygon opacity="0.1" enable-background="new    " points="237.842,301.649 200.407,326.747 156.209,309.336 97.01,322.903 
	174.96,239.69 "/>
<polygon opacity="0.1" enable-background="new    " points="600.015,156.043 587.476,178.075 559.355,148.617 528.548,178.075 
	511.134,144.6 483.005,178.075 474.968,156.655 456.226,178.075 422.738,156.655 399.06,165.198 517.832,25.881 "/>
<polygon opacity="0.1" enable-background="new    " points="904.81,238.712 870.079,281.209 841.953,247.726 799.095,282.549 
	768.034,240.936 835.258,156.651 "/>
<path fill="#2F2E41" d="M905.237,407.739l-1.875-0.968c24.345-47.066,11.327-108.188-3.879-151.175
	c-10.326-28.894-23.497-56.688-39.317-82.979l1.781-1.126c15.904,26.423,29.143,54.361,39.522,83.402
	C916.817,298.273,929.927,360.004,905.237,407.739z"/>
<rect x="879.422" y="208.447" transform="matrix(-0.1797 0.9837 -0.9837 -0.1797 1288.4851 -655.3882)" fill="#2F2E41" width="76.13" height="2.109"/>
<rect x="865.803" y="222.495" transform="matrix(-0.7323 0.6809 -0.6809 -0.7323 1688.5103 -115.0005)" fill="#2F2E41" width="2.11" height="103.733"/>
<rect x="911.679" y="343.445" transform="matrix(-0.5859 0.8104 -0.8104 -0.5859 1773.4932 -217.3019)" fill="#2F2E41" width="61.182" height="2.11"/>
<circle fill="#00CD65" cx="929.613" cy="141.468" r="10.547"/>
<circle fill="#3F3D56" cx="814.648" cy="222.68" r="10.547"/>
<circle fill="#3F3D56" cx="861.057" cy="233.228" r="10.547"/>
<circle fill="#00CD65" cx="839.962" cy="274.361" r="10.547"/>
<circle fill="#3F3D56" cx="971.801" cy="300.729" r="10.547"/>
<circle fill="#3F3D56" cx="936.996" cy="312.331" r="10.547"/>
<circle fill="#3F3D56" cx="961.254" cy="346.083" r="10.547"/>
<circle fill="#3F3D56" cx="850.51" cy="154.124" r="10.547"/>
<path fill="#2F2E41" d="M642.613,405.629l-1.874-0.968c24.345-47.066,11.326-108.188-3.881-151.175
	c-10.325-28.894-23.495-56.689-39.316-82.979l1.781-1.126c15.904,26.423,29.144,54.361,39.523,83.402
	C654.193,296.163,667.303,357.894,642.613,405.629z"/>
<rect x="616.798" y="206.336" transform="matrix(-0.1797 0.9837 -0.9837 -0.1797 976.5811 -399.53)" fill="#2F2E41" width="76.129" height="2.109"/>
<rect x="603.179" y="220.385" transform="matrix(-0.7323 0.6809 -0.6809 -0.7323 1232.1219 60.1787)" fill="#2F2E41" width="2.11" height="103.733"/>
<rect x="649.055" y="341.335" transform="matrix(-0.5859 0.8104 -0.8104 -0.5859 1355.2996 -7.8124)" fill="#2F2E41" width="61.182" height="2.11"/>
<circle fill="#3F3D56" cx="666.989" cy="139.358" r="10.547"/>
<circle fill="#3F3D56" cx="552.025" cy="220.571" r="10.547"/>
<circle fill="#3F3D56" cx="598.433" cy="231.118" r="10.547"/>
<circle fill="#3F3D56" cx="577.339" cy="272.252" r="10.547"/>
<circle fill="#00CD65" cx="709.178" cy="298.62" r="10.547"/>
<circle fill="#3F3D56" cx="674.371" cy="310.222" r="10.547"/>
<circle fill="#3F3D56" cx="698.63" cy="343.972" r="10.547"/>
<circle fill="#3F3D56" cx="587.886" cy="152.015" r="10.547"/>
<path fill="#2F2E41" d="M201.978,405.629l1.874-0.968c-24.344-47.066-11.327-108.188,3.88-151.175
	c10.326-28.894,23.496-56.689,39.317-82.979l-1.783-1.126c-15.903,26.423-29.142,54.361-39.523,83.402
	C190.397,296.163,177.288,357.894,201.978,405.629z"/>
<rect x="188.677" y="169.322" transform="matrix(-0.9837 0.1799 -0.1799 -0.9837 413.68 377.2512)" fill="#2F2E41" width="2.109" height="76.129"/>
<rect x="188.491" y="271.197" transform="matrix(-0.6812 0.7321 -0.7321 -0.6812 603.4037 281.7587)" fill="#2F2E41" width="103.732" height="2.11"/>
<rect x="163.89" y="311.8" transform="matrix(-0.8105 0.5858 -0.5858 -0.8105 499.1898 523.2737)" fill="#2F2E41" width="2.11" height="61.182"/>
<circle fill="#3F3D56" cx="177.602" cy="139.358" r="10.547"/>
<circle fill="#3F3D56" cx="292.565" cy="220.571" r="10.547"/>
<circle fill="#3F3D56" cx="246.158" cy="231.118" r="10.547"/>
<circle fill="#3F3D56" cx="267.253" cy="272.252" r="10.547"/>
<circle fill="#3F3D56" cx="135.414" cy="298.62" r="10.547"/>
<circle fill="#3F3D56" cx="170.219" cy="310.222" r="10.547"/>
<circle fill="#00CD65" cx="145.96" cy="343.972" r="10.547"/>
<circle fill="#3F3D56" cx="256.706" cy="152.015" r="10.547"/>
<rect x="19.395" y="405.145" fill="#2F2E41" width="1027.292" height="2.109"/>
<circle fill="#2F2E41" cx="472.933" cy="382.365" r="12.692"/>
<path fill="#FFB8B8" d="M466.078,392.01c0,0,0.255,4.569-2.792,5.077l4.316,10.408l5.331,8.63h4.569l2.792-2.537l-0.508-3.301
	l-1.523-5.839l-1.776-1.776c0,0,0.254-7.361,2.538-10.662C481.309,388.711,466.078,392.01,466.078,392.01z"/>
<path opacity="0.1" enable-background="new    " d="M466.078,392.01c0,0,0.255,4.569-2.792,5.077l4.316,10.408l5.331,8.63h4.569
	l2.792-2.537l-0.508-3.301l-1.523-5.839l-1.776-1.776c0,0,0.254-7.361,2.538-10.662C481.309,388.711,466.078,392.01,466.078,392.01z
	"/>
<circle fill="#2F2E41" cx="476.486" cy="370.18" r="6.092"/>
<path fill="#2F2E41" d="M470.648,367.642c0-3.365,2.728-6.092,6.092-6.092l0,0c0.08,0,0.159,0.003,0.24,0.006
	c-3.221-0.974-6.621,0.849-7.595,4.068c-0.973,3.22,0.848,6.62,4.068,7.594c0.496,0.15,1.008,0.235,1.523,0.256
	C472.407,372.698,470.648,370.328,470.648,367.642z"/>
<path fill="#FFB8B8" d="M464.556,397.342l-2.539-0.255c-1.438-0.414-2.988-0.028-4.062,1.017
	c-1.777,1.775,0.253,21.831,0.253,21.831l6.347-4.316l1.014-10.154L464.556,397.342z"/>
<path fill="#FFB8B8" d="M452.118,476.031l-3.554,20.054c0,0-2.285,8.377-5.078,10.916c-2.792,2.539-7.107,23.607-8.122,28.176
	c-1.016,4.569-1.27,7.109-2.539,8.886c-1.27,1.776,0,8.123,0,8.123h2.792l4.063-0.762c0,0,0.761-9.646,1.522-11.423
	c0.763-1.776,13.201-28.431,13.201-28.431s8.377-12.438,9.9-19.292c1.151-4.588,3.038-8.961,5.584-12.946L452.118,476.031z"/>
<path fill="#FFB8B8" d="M477.756,475.017l3.3,23.101c0,0,0,7.106,1.016,9.899s1.777,19.291,2.792,23.099
	c1.016,3.809,3.301,12.186,2.538,13.201c-0.891,1.63-1.654,3.328-2.285,5.075l2.539,5.585l6.854-4.822l-1.016-41.63
	c0,0,2.792-35.285,1.016-36.3C492.732,471.209,483.849,468.162,477.756,475.017z"/>
<path fill="#2F2E41" d="M458.209,450.14l-5.077,13.962c0,0-3.807,14.723-1.777,15.485c2.031,0.761,25.13,4.061,25.639,1.268
	c0.231-1.088,0.402-2.189,0.507-3.3c0,0,19.8,0.763,20.054-3.808c0.01-6.19-0.327-12.377-1.017-18.531
	c-0.504-2.144-2.366-3.697-4.569-3.805C489.178,451.411,465.064,445.064,458.209,450.14z"/>
<path fill="#2F2E41" d="M433.333,549.139c0.497-0.764,1.512-0.989,2.284-0.507c1.524,0.761,4.569,0.507,4.569,0.507l-0.761,6.854
	c0,0,3.047,12.185-2.538,12.185s-8.631-4.062-8.124-5.585c0.507-1.522,1.777-13.453,1.777-13.453s2.439-5.991,2.539-6.345
	C433.179,542.441,433.333,549.139,433.333,549.139z"/>
<path fill="#2F2E41" d="M486.386,547.87c0,0-0.507,2.792,1.778,2.537c2.284-0.253,6.091-2.537,6.346-2.284
	c0.651,1.272,1.081,2.646,1.268,4.063c0.256,1.776,0.762,5.584,3.048,7.361c2.284,1.777,5.838,7.361,1.776,7.614
	c-4.062,0.255-11.424,0-11.677-2.537c-0.253-2.539-0.253-5.332-0.253-5.332s-2.285,0.255-3.047-0.253s-5.839-3.554-4.316-7.615
	c1.523-4.062,5.821-6.679,5.821-6.679L486.386,547.87z"/>
<circle fill="#FFB8B8" cx="471.917" cy="385.918" r="9.899"/>
<path fill="#FFB8B8" d="M477.248,404.448c0,0,4.569,0,5.584,2.539c1.017,2.538-1.015,7.868-1.015,7.868l-2.314-5.657
	L477.248,404.448z"/>
<path fill="#3F3D56" d="M460.748,396.833h3.046c0,0,7.869,11.676,9.139,12.692c1.269,1.017,5.838,1.27,5.838,0.507
	c0-0.761-2.285-7.36-2.285-7.36l2.031,1.523l3.3,8.122c0,0,8.884,22.339,8.123,24.623c-0.512,1.141-0.002,2.48,1.138,2.993
	c0.044,0.02,0.087,0.037,0.132,0.053c0.253,0.255,3.045,6.092,1.776,8.377c-1.27,2.284,1.269,5.077,1.269,5.077
	s1.27,5.585-3.045,6.345c-4.316,0.764-6.601-3.298-11.678-1.269c-5.077,2.032-11.93,2.285-13.453-0.761
	c-1.09-2.305-2.022-4.68-2.792-7.108c0,0-2.792,4.823-1.522,8.631c1.268,3.808-0.509-0.253-1.777-0.253
	c-1.269,0-3.555-0.255-3.555-1.777c0-1.523-5.077-27.161-5.077-27.161l7.107-16.246c0,0,6.601-3.046,5.839-6.6
	C463.541,403.687,464.556,398.611,460.748,396.833z"/>
<path fill="#FFB8B8" d="M461.578,398.448c-1.285-1.16-3.125-1.467-4.717-0.787c-3.104,1.33-5.418,4.025-6.266,7.295
	c-2.285,7.361-7.108,26.907-6.092,31.729c1.015,4.823,9.392,26.4,9.392,26.4c0.236,1.964,0.575,3.912,1.016,5.839
	c0.254,0.254,4.062-9.14,4.062-9.14l-6.6-25.129l8.884-27.161C461.256,407.495,464.87,401.531,461.578,398.448z"/>
<ellipse fill="#2F2E41" cx="472.806" cy="377.542" rx="9.773" ry="6.347"/>
<path fill="#2F2E41" d="M256.276,404.685c0,0-17.003,9.154-17.656,17.002c-0.654,7.848-10.464,27.465-10.464,27.465
	s-38.583-11.116-39.237-11.77c-0.654-0.654-3.27,11.77-3.27,11.77l13.733,1.964l25.504,9.154c0,0,5.886,8.502,15.695-3.27
	s34.66-37.275,34.66-37.275L256.276,404.685z"/>
<path fill="#2F2E41" d="M253.006,436.728c0,0,21.581,20.926,20.926,25.505c-0.653,4.577-10.463,41.853-10.463,41.853l7.847,3.923
	l5.232-3.27l10.463-45.122c0,0,3.938-5.526-3.589-11.918c-7.528-6.393-12.76-28.626-12.76-28.626L253.006,436.728z"/>
<circle fill="#A0616A" cx="314.151" cy="384.085" r="11.117"/>
<path fill="#A0616A" d="M306.63,382.451c0,0-11.117-5.232-12.425-3.926c-1.308,1.309,2.616,17.003,2.616,17.003
	s10.463-5.885,11.771-5.885S306.63,382.451,306.63,382.451z"/>
<path fill="#00CD65" d="M300.091,389.644c0,0-3.27-13.079-4.578-13.079c-1.308,0-13.733,1.961-21.581,11.116
	c-7.847,9.156-16.349,14.388-18.964,16.349c-2.616,1.964-4.578,3.924,0,5.887c4.577,1.962,9.809,7.193,11.771,10.464
	c1.961,3.268,15.041-0.655,15.041-0.655s5.886-11.117,7.848-11.117S302.053,393.568,300.091,389.644z"/>
<path fill="#A0616A" d="M280.472,404.03c0,0-9.155,12.425-9.155,21.582c0,9.155,5.232,24.195,5.232,24.195
	s4.577,22.234,8.501,14.386c3.923-7.847-2.616-18.309-2.616-18.309l-2.616-23.543l5.231-12.425L280.472,404.03z"/>
<path fill="#2F2E41" d="M190.979,438.137c0,0-7.291-5.333-7.945-3.37c-0.654,1.961-10.463,24.195-7.194,25.503
	c3.27,1.308,13.079-11.771,13.733-11.771C190.228,448.499,189.115,437.582,190.979,438.137z"/>
<path fill="#2F2E41" d="M275.241,500.815c0,0,9.809,5.231,11.771,5.231c1.961,0,5.885,2.617,1.307,3.924
	c-4.577,1.309-24.85,3.27-25.504,1.308c-0.654-1.962,0-7.192,0-7.192S275.241,502.777,275.241,500.815z"/>
<path fill="#2F2E41" d="M327.044,383.884c0.3-0.805,0.407-1.668,0.313-2.521c-0.061-1.88-0.191-3.934-1.468-5.313
	c-0.655-0.707-1.574-1.185-2.035-2.03c-0.242-0.592-0.439-1.201-0.59-1.824c-0.659-1.505-2.005-2.601-3.614-2.939
	c-1.587-0.318-3.216-0.378-4.823-0.176c-2.305,0.047-4.588,0.447-6.771,1.192c-2.207,0.772-3.932,2.522-4.673,4.74
	c-0.193,0.854-0.284,1.728-0.273,2.604l-0.096,3.641c0.748,0.658,1.829,0.775,2.699,0.291c0.886-0.394,1.638-1.056,2.538-1.418
	c0.891-0.449,1.972-0.254,2.648,0.48c0.177,0.324,0.331,0.658,0.46,1.002c1.795,3.573,6.618-0.229,9.124-0.175
	C322.726,381.488,325.402,387.406,327.044,383.884z"/>
<path fill="#2F2E41" d="M291.477,513.285c16.297,0,18.922-6.071,19.03-6.342l-1.211-0.493c-0.027,0.062-2.817,6.107-20.298,5.482
	c-16.969-0.606-43.225-0.084-46.733-0.009c-0.983-1.665-5.394-8.42-11.62-7.172l0.257,1.281c5.982-1.2,10.369,6.782,10.413,6.863
	l0.19,0.351l0.4-0.008c0.288-0.006,28.965-0.644,47.046,0C289.827,513.271,290.669,513.285,291.477,513.285z"/>
<path fill="#2F2E41" d="M291.781,519.78h-0.384c-1.339,0-2.424-1.085-2.424-2.424v-0.385c0-1.337,1.085-2.423,2.424-2.423h0.384
	c1.339,0,2.424,1.086,2.424,2.423v0.385C294.206,518.695,293.121,519.78,291.781,519.78z"/>
<path fill="#2F2E41" d="M246.659,519.78h-0.384c-1.339,0-2.424-1.085-2.424-2.424v-0.385c0-1.337,1.085-2.423,2.424-2.423h0.384
	c1.339,0,2.424,1.086,2.424,2.423v0.385C249.083,518.695,247.998,519.78,246.659,519.78z"/>
<path fill="#00CD65" d="M298.129,388.335c0,0-3.108,15.743-6.459,18.661c-3.351,2.92-4.138,5.747-6.36,6.623
	c-2.222,0.874-10.069-8.281-10.069-8.935C275.241,404.03,298.129,388.335,298.129,388.335z"/>
<rect x="199.751" y="522.219" fill="#2F2E41" width="164.535" height="2.109"/>
<rect x="395.927" y="566.515" fill="#2F2E41" width="164.536" height="2.11"/>
<rect x="626.91" y="628.744" fill="#2F2E41" width="67.501" height="2.109"/>
<rect x="206.079" y="610.814" fill="#2F2E41" width="67.502" height="2.109"/>
<rect x="580.942" y="462.099" fill="#2F2E41" width="290.221" height="2.109"/>
<path fill="#F2F2F2" d="M252.963,24.063c-18.68-18.754-49.024-18.814-67.778-0.135c-4.876,4.856-8.648,10.706-11.062,17.151
	L262.148,37C259.828,32.207,256.724,27.833,252.963,24.063z"/>
<path fill="#F2F2F2" d="M475.083-17.357c-18.679-18.754-49.025-18.813-67.779-0.135c-4.875,4.856-8.649,10.706-11.061,17.151
	l88.025-4.079C481.947-9.213,478.844-13.586,475.083-17.357z"/>
<path fill="#F2F2F2" d="M781.058,100.523c-18.68-18.755-49.025-18.814-67.779-0.135c-4.877,4.856-8.649,10.706-11.062,17.151
	l88.024-4.079C787.922,108.667,784.817,104.293,781.058,100.523z"/>
<path fill="#F2F2F2" d="M996.082,82.872c-18.68-18.754-49.024-18.813-67.778-0.134c-4.877,4.856-8.65,10.706-11.063,17.151
	l88.024-4.079C1002.946,91.017,999.842,86.643,996.082,82.872z"/>
<rect x="735.545" y="596.048" fill="#2F2E41" width="159.263" height="2.109"/>
<path fill="#00CD65" d="M763.098,554.941c0.002,4.414-3.399,8.082-7.801,8.411h-0.008c-0.206,0.021-0.414,0.026-0.629,0.026
	c-4.659,0.001-8.438-3.777-8.438-8.437c0,0,0,0,0-0.001c-0.001-0.044,0.001-0.088,0.006-0.13c0.062-4.248,3.274-7.787,7.497-8.257
	c0.31-0.033,0.622-0.05,0.935-0.051c4.098-0.002,7.603,2.941,8.309,6.978v0.007C763.053,553.967,763.098,554.452,763.098,554.941z"
	/>
<path fill="#F2F2F2" d="M763.098,554.941c0.002,4.414-3.399,8.082-7.801,8.411h-0.008c-2.136-2.88-1.534-6.942,1.345-9.08
	c1.827-1.356,4.23-1.657,6.335-0.791v0.007C763.053,553.967,763.098,554.452,763.098,554.941z"/>
<path fill="#F2F2F2" d="M754.011,548.45c0,3.584-2.905,6.491-6.49,6.491c-0.434,0-0.866-0.045-1.292-0.131
	c0.062-4.248,3.274-7.786,7.497-8.257C753.917,547.167,754.013,547.807,754.011,548.45z"/>
<path fill="#2F2E41" d="M836.798,542.805c0,5.241-7.833,4.52-9.493,9.491c-5.804,17.397-9.545-2.585-9.491-9.491
	c0-5.243,4.249-9.493,9.491-9.493C832.548,533.312,836.798,537.562,836.798,542.805L836.798,542.805z"/>
<path fill="#3F3D56" d="M824.623,569.136c0,0-0.112,11.953-1.668,12.732c-1.559,0.778-10.397,2.448-8.841,5.173
	c1.697,2.792,5.257,3.81,8.173,2.335c2.726-1.557,9.343-10.898,9.343-10.898L824.623,569.136z"/>
<path fill="#3F3D56" d="M857.708,579.646c0,0,0,0.114,0.012,0.318c0.337,4.762,4.469,8.348,9.23,8.012
	c0.933-0.066,1.849-0.282,2.712-0.643c1.135-0.446,2.119-0.515,1.944,0.712c-0.39,2.724-0.275,6.392,1.67,6.392
	c1.947,0,4.672-4.671,3.113-9.731c-1.237-3.58-2.938-6.981-5.059-10.119L857.708,579.646z"/>
<path opacity="0.1" enable-background="new    " d="M824.623,569.136c0,0-0.112,11.953-1.668,12.732
	c-1.559,0.778-10.397,2.448-8.841,5.173c1.697,2.792,5.257,3.81,8.173,2.335c2.726-1.557,9.343-10.898,9.343-10.898L824.623,569.136
	z"/>
<path opacity="0.1" enable-background="new    " d="M857.708,579.646c0,0,0,0.114,0.012,0.318c0.337,4.762,4.469,8.348,9.23,8.012
	c0.933-0.066,1.849-0.282,2.712-0.643c1.135-0.446,2.119-0.515,1.944,0.712c-0.39,2.724-0.275,6.392,1.67,6.392
	c1.947,0,4.672-4.671,3.113-9.731c-1.237-3.58-2.938-6.981-5.059-10.119L857.708,579.646z"/>
<path fill="#3F3D56" d="M816.119,544.599c0.828-1.821,2.059-3.429,3.601-4.703c2.981-2.491,7.003-3.349,10.742-2.286
	c8.951,2.335,10.119,8.952,10.119,8.952v2.67c-0.033,2.621,1.533,4.998,3.957,5.998c1.982,0.773,34.612-0.317,36.559-2.264
	c1.404-1.568,2.571-3.331,3.468-5.237v0.076c0.031,3.565-0.898,7.074-2.69,10.156c-0.784,1.105-1.205,2.426-1.202,3.78
	c0.39,2.725,1.558,10.119-0.778,12.845c-2.336,2.725-1.168,4.67,1.557,5.06c2.725,0.389,7.396-0.39,7.006,4.281
	c-0.389,4.671,0.39,6.616-1.558,6.616c-1.945,0-2.802-0.599-4.748-4.881c0,0-1.479-0.957-6.927,0.6
	c-3.542,1.013-8.196,1.972-9.558-0.778c-3.011-6.082-22.373-4.882-26.781,1.205c-1.173,1.734-2.606,3.277-4.252,4.574
	c-0.768,0.603-1.615,1.097-2.518,1.471c-2.335,0.827-5.157,1.118-7.103-1.021c-3.892-4.282,6.511-4.995,6.511-4.995
	s1.662-3.958,0.885-6.683c0,0-9.343-1.945-9.731-14.012c0,0-12.454,0-14.401-6.227l-1.945-6.228l3.744-2.247
	c2.633-1.581,4.733-3.912,6.032-6.695L816.119,544.599z"/>
<ellipse fill="#2F2E41" cx="806.506" cy="553.876" rx="1.814" ry="2.335"/>
<path fill="#2F2E41" d="M845.235,546.638c0,5.825-8.702,5.021-10.547,10.547c-6.449,19.33-10.606-2.872-10.547-10.547
	c0-5.825,4.723-10.547,10.547-10.547C840.514,536.091,845.235,540.813,845.235,546.638z"/>
<g>
	<g>
		<path fill="#3C3C3B" d="M552.025,22.327v-62.814h12.578V11.65h12.941v10.677H552.025z"/>
		<path fill="#ECECEC" d="M581.859,6.312v-21.498c0-5.07,1.426-9.104,4.278-12.103c2.852-2.998,6.765-4.497,11.735-4.497
			c4.973,0,8.885,1.499,11.737,4.497c2.852,2.999,4.277,7.033,4.277,12.103V6.312c0,11.068-5.338,16.6-16.015,16.6
			C587.195,22.912,581.859,17.38,581.859,6.312z M600.14,11.944c0.488-0.731,0.731-1.731,0.731-2.999v-26.179
			c0-3.119-0.999-4.679-2.998-4.679c-1.998,0-2.999,1.56-2.999,4.679V8.945c0,1.268,0.244,2.267,0.732,2.999
			c0.487,0.73,1.242,1.097,2.267,1.097S599.651,12.674,600.14,11.944z"/>
		<path fill="#3C3C3B" d="M623.539,18.451c-2.584-2.972-3.877-7.532-3.877-13.675v-16.524c0-4.631,0.5-8.397,1.5-11.298
			c0.998-2.899,2.682-5.082,5.046-6.545c2.365-1.462,5.642-2.193,9.835-2.193c4.582,0,8.313,1.195,11.188,3.583
			c2.877,2.39,4.315,5.729,4.315,10.018v8.19h-13.018v-7.531c0-1.413-0.194-2.498-0.586-3.254c-0.389-0.755-1.145-1.133-2.266-1.133
			c-2.097,0-3.144,1.487-3.144,4.46V8.506c0,1.22,0.256,2.255,0.768,3.108c0.512,0.854,1.279,1.279,2.304,1.279
			c1.023,0,1.792-0.414,2.303-1.244c0.512-0.828,0.742-1.9,0.696-3.217l-0.075-8.995h13.018v9.361c0,4.387-1.427,7.837-4.277,10.346
			c-2.854,2.513-6.545,3.767-11.079,3.767C630.34,22.912,626.123,21.425,623.539,18.451z"/>
		<path fill="#3C3C3B" d="M658.675,18.781c-1.534-2.755-2.303-6.692-2.303-11.811c0-4.192,0.548-7.41,1.645-9.653
			c1.098-2.241,2.619-3.887,4.571-4.936c1.949-1.047,4.922-2.205,8.921-3.473l3.51-1.17v-0.146v-5.338
			c0-1.414-0.279-2.498-0.841-3.254c-0.561-0.755-1.231-1.133-2.011-1.133c-0.683,0-1.279,0.317-1.792,0.951
			c-0.512,0.634-0.77,1.487-0.77,2.559v3.217h-12.43v-1.754c0-5.265,1.231-9.018,3.693-11.262c2.461-2.241,6.472-3.363,12.028-3.363
			c4.437,0,8.045,1.158,10.824,3.474c2.777,2.315,4.166,5.593,4.166,9.835v40.803h-12.724v-6.362
			c-0.634,2.194-1.646,3.9-3.033,5.118c-1.391,1.219-3.035,1.829-4.937,1.829C663.05,22.912,660.211,21.534,658.675,18.781z
			 M674.324,11.76c0.415-0.804,0.622-1.792,0.622-2.961V-6.119c-1.901,0.731-3.304,1.657-4.206,2.779s-1.353,2.682-1.353,4.68v6.874
			c0,3.17,0.952,4.753,2.851,4.753C673.215,12.966,673.91,12.564,674.324,11.76z"/>
		<path fill="#3C3C3B" d="M694.249,22.327v-63.18h13.017v63.18H694.249z"/>
		<path fill="#49AF62" d="M712.384,22.327l6.069-62.814h21.278l5.998,62.814h-11.921l-0.878-10.165h-7.604l-0.73,10.165H712.384z
			 M726.276,2.145h5.705l-2.78-31.955h-0.583L726.276,2.145z"/>
		<path fill="#49AF62" d="M754.247,20.682c-1.586-1.487-2.634-3.461-3.146-5.924c-0.512-2.46-0.768-5.617-0.768-9.47l0.146-24.13
			c0-3.803,0.962-6.911,2.889-9.323c1.926-2.413,4.643-3.62,8.154-3.62c3.461,0,6.043,1.146,7.75,3.437v-12.504h12.798v63.18
			h-12.798v-5.704c-0.731,2.096-1.719,3.668-2.961,4.716c-1.243,1.047-2.916,1.572-5.01,1.572
			C758.184,22.912,755.829,22.168,754.247,20.682z M768.688,11.029c0.391-1.243,0.584-2.913,0.584-5.009V3.753v-20.109
			c0-1.56-0.219-2.876-0.657-3.949c-0.438-1.072-1.221-1.608-2.34-1.608c-1.268,0-2.109,0.5-2.523,1.499
			c-0.415,0.999-0.622,2.353-0.622,4.059V6.166c0,4.485,1.025,6.727,3.072,6.727C767.47,12.893,768.297,12.271,768.688,11.029z"/>
		<path fill="#49AF62" d="M795.451,22.327L786.896-31.2h12.796l2.632,27.056l0.439,8.702l0.512-8.775L806.2-31.2h12.795
			l-8.701,53.527H795.451z"/>
		<path fill="#49AF62" d="M826.966,18.378c-2.388-3.023-3.582-7.532-3.582-13.528v-21.499c0-4.923,1.413-8.676,4.24-11.261
			c2.828-2.583,6.777-3.875,11.849-3.875c10.284,0,15.427,5.044,15.427,15.136v3.876c0,3.9-0.049,7.069-0.145,9.506h-18.574V7.117
			c0,1.854,0.193,3.303,0.585,4.35c0.389,1.05,1.218,1.573,2.486,1.573c0.976,0,1.668-0.293,2.083-0.878
			c0.413-0.584,0.66-1.253,0.73-2.011c0.074-0.755,0.111-1.864,0.111-3.327V1.632h12.723v3.072c0,6.239-1.206,10.834-3.619,13.784
			c-2.412,2.95-6.569,4.424-12.469,4.424C833.305,22.912,829.354,21.401,826.966,18.378z M842.177-9.629v-6.874
			c0-3.851-0.949-5.777-2.852-5.777c-2.147,0-3.218,1.926-3.218,5.777v6.874H842.177z"/>
		<path fill="#49AF62" d="M860.97-31.2h12.796v6.8c0.536-2.194,1.463-3.973,2.778-5.338c1.316-1.364,3.071-2.047,5.265-2.047
			c3.608,0,6.276,1.109,8.009,3.327c1.729,2.219,2.595,5.375,2.595,9.47v41.315h-12.576v-40c0-1.169-0.233-2.168-0.697-2.998
			c-0.461-0.828-1.182-1.242-2.155-1.242c-1.315,0-2.183,0.597-2.597,1.792c-0.414,1.195-0.621,2.79-0.621,4.789v37.659H860.97
			V-31.2z"/>
		<path fill="#49AF62" d="M903.014,20.791c-1.267-1.413-1.899-3.68-1.899-6.8v-33.418h-3.583v-9.725h3.583v-11.334h12.431v11.334
			h3.656v9.725h-3.656v30.055c0,0.927,0.074,1.609,0.22,2.047c0.146,0.439,0.535,0.659,1.169,0.659c0.488,0,0.951-0.025,1.392-0.074
			c0.437-0.049,0.73-0.074,0.876-0.074v8.775c-0.73,0.195-1.79,0.403-3.18,0.621c-1.392,0.22-2.742,0.33-4.059,0.33
			C906.599,22.912,904.283,22.205,903.014,20.791z"/>
		<path fill="#49AF62" d="M924.77,19.328c-1.488-2.388-2.23-5.946-2.23-10.676V-31.2h12.87V6.093c0,0.342,0,1.256,0,2.742
			c0,1.488,0.229,2.536,0.695,3.145c0.462,0.61,1.182,0.915,2.156,0.915c1.316,0,2.145-0.548,2.486-1.646
			c0.341-1.097,0.512-2.667,0.512-4.716V6.093l0.072-37.292h12.725v53.527h-12.797v-5.704c-0.877,2.242-1.901,3.851-3.071,4.826
			c-1.169,0.974-2.901,1.462-5.192,1.462C928.998,22.912,926.255,21.718,924.77,19.328z"/>
		<path fill="#49AF62" d="M960.637-31.2h12.796v5.923c0.633-2.096,1.744-3.717,3.327-4.862c1.584-1.146,3.547-1.719,5.887-1.719
			v10.677c-1.803,0-3.79,0.255-5.959,0.768c-2.17,0.512-3.255,1.11-3.255,1.792v40.95h-12.796V-31.2z"/>
		<path fill="#49AF62" d="M990.396,18.378c-2.389-3.023-3.582-7.532-3.582-13.528v-21.499c0-4.923,1.412-8.676,4.241-11.261
			c2.825-2.583,6.774-3.875,11.845-3.875c10.286,0,15.43,5.044,15.43,15.136v3.876c0,3.9-0.05,7.069-0.146,9.506h-18.576V7.117
			c0,1.854,0.195,3.303,0.587,4.35c0.391,1.05,1.22,1.573,2.487,1.573c0.976,0,1.668-0.293,2.083-0.878
			c0.414-0.584,0.659-1.253,0.731-2.011c0.071-0.755,0.11-1.864,0.11-3.327V1.632h12.723v3.072c0,6.239-1.207,10.834-3.619,13.784
			c-2.412,2.95-6.569,4.424-12.469,4.424C996.734,22.912,992.787,21.401,990.396,18.378z M1005.607-9.629v-6.874
			c0-3.851-0.952-5.777-2.853-5.777c-2.146,0-3.218,1.926-3.218,5.777v6.874H1005.607z"/>
		<path fill="#49AF62" d="M1024.398-31.2h12.796v5.923c0.634-2.096,1.743-3.717,3.327-4.862c1.585-1.146,3.547-1.719,5.888-1.719
			v10.677c-1.804,0-3.792,0.255-5.96,0.768c-2.169,0.512-3.255,1.11-3.255,1.792v40.95h-12.796V-31.2z"/>
	</g>
	<g>
		<g>
			<path fill="#49AF62" d="M581.576,6.622v-21.498c0-5.071,1.427-9.104,4.278-12.104c2.852-2.997,6.765-4.496,11.737-4.496
				c4.972,0,8.884,1.499,11.736,4.496c2.852,3,4.276,7.032,4.276,12.104V6.622c0,11.068-5.338,16.599-16.013,16.599
				C586.914,23.221,581.576,17.69,581.576,6.622z M599.857,12.253c0.487-0.73,0.731-1.729,0.731-2.998v-26.178
				c0-3.12-1.001-4.681-2.997-4.681c-2,0-3,1.562-3,4.681V9.255c0,1.269,0.244,2.268,0.731,2.998
				c0.487,0.731,1.243,1.098,2.269,1.098C598.614,13.35,599.369,12.984,599.857,12.253z"/>
		</g>
		<path fill-rule="evenodd" clip-rule="evenodd" fill="#49AF62" d="M611.564,16.298c-4.189,6.734-9.306,13.17-13.973,20.047
			c-4.012-5.833-9.43-13.14-13.156-18.662"/>
	</g>
</g>
<path fill="#3F3D56" d="M46.989-34.529L60.082-45c-10.171-1.123-14.351,4.425-16.061,8.815c-7.946-3.3-16.596,1.024-16.596,1.024
	l26.196,9.511C52.3-29.18,49.999-32.26,46.989-34.529z"/>
<path fill="#3F3D56" d="M285.254-8.393l13.093-10.472c-10.172-1.122-14.352,4.425-16.062,8.816
	c-7.945-3.3-16.595,1.024-16.595,1.024l26.195,9.51C290.565-3.044,288.264-6.124,285.254-8.393z"/>
<path fill="#3F3D56" d="M173.456,41.949l13.092-10.472c-10.171-1.122-14.35,4.425-16.06,8.815
	c-7.946-3.299-16.598,1.025-16.598,1.025l26.197,9.51C178.765,47.298,176.466,44.219,173.456,41.949z"/>
</svg>
