<?xml version="1.0" encoding="utf-8"?>
<!-- Generator: Adobe Illustrator 16.0.0, SVG Export Plug-In . SVG Version: 6.00 Build 0)  -->
<!DOCTYPE svg PUBLIC "-//W3C//DTD SVG 1.1//EN" "http://www.w3.org/Graphics/SVG/1.1/DTD/svg11.dtd">
<svg version="1.1" id="Ebene_1" xmlns="http://www.w3.org/2000/svg" xmlns:xlink="http://www.w3.org/1999/xlink" x="0px" y="0px"
	 width="24px" height="24px" viewBox="0 0 24 24" enable-background="new 0 0 24 24" xml:space="preserve">
<g>
	<path fill-rule="evenodd" clip-rule="evenodd" fill="#706F6F" d="M10.06,1.716C10.409,1.8,10.759,1.88,11.104,1.97
		c2.972,0.771,5.059,3.545,4.898,6.537c-0.079,1.46-0.601,2.803-1.217,4.105c-1.518,3.199-3.532,6.107-5.398,9.102
		c-0.013,0.021-0.041,0.035-0.086,0.07c-0.042-0.046-0.094-0.086-0.127-0.141c-1.509-2.462-3.047-4.905-4.513-7.394
		c-0.828-1.405-1.497-2.899-1.873-4.501C1.949,6.157,4.142,2.74,7.83,1.886C8.07,1.831,8.311,1.773,8.55,1.716
		C9.054,1.716,9.558,1.716,10.06,1.716z M9.308,20.268c0.834-1.331,1.64-2.571,2.404-3.837c1.135-1.874,2.278-3.744,2.986-5.834
		c0.396-1.173,0.653-2.368,0.341-3.612c-0.93-3.704-5.281-5.555-8.611-3.666C4.337,4.505,2.859,6.899,3.66,9.749
		c0.346,1.231,0.796,2.415,1.432,3.513c1.249,2.16,2.561,4.287,3.847,6.425C9.045,19.863,9.158,20.032,9.308,20.268z"/>
	<path fill-rule="evenodd" clip-rule="evenodd" fill="#706F6F" d="M11.821,8.412c0.008,1.369-1.12,2.515-2.49,2.529
		C7.945,10.957,6.787,9.807,6.79,8.421c0.005-1.37,1.141-2.506,2.51-2.509C10.669,5.909,11.813,7.042,11.821,8.412z M9.327,6.751
		C8.414,6.739,7.637,7.502,7.63,8.415c-0.006,0.897,0.734,1.663,1.632,1.687c0.911,0.025,1.699-0.729,1.718-1.643
		C10.999,7.547,10.242,6.764,9.327,6.751z"/>
</g>
</svg>
